<svg xmlns="http://www.w3.org/2000/svg" width="661" height="481" version="1.1" viewBox="-0.5 -0.5 661 481"><g><rect width="216" height="56" x="238" y="10" fill="#fff" stroke="#000" stroke-width="2.5" pointer-events="all"/><rect width="216" height="56" x="230" y="2" fill="#fff" stroke="#000" stroke-width="2.5" pointer-events="all"/><text x="338" y="37" fill="#000" dominant-baseline="central" font-family="Helvetica, Arial, sans-serif" font-size="24" font-weight="bold" text-anchor="middle">Ingress</text><path fill="none" stroke="#000" stroke-miterlimit="10" stroke-width="2" d="M 338 58 L 338 146"/><path fill="#000" stroke="#000" stroke-miterlimit="10" stroke-width="2" d="M 338 152 L 334 144 L 338 146 L 342 144 Z"/><rect width="260" height="56" x="208" y="160" fill="#fff" stroke="#000" stroke-width="2.5" pointer-events="all"/><rect width="260" height="56" x="200" y="152" fill="#fff" stroke="#000" stroke-width="2.5" pointer-events="all"/><text x="330" y="185" fill="#000" dominant-baseline="central" font-family="Helvetica, Arial, sans-serif" font-size="22" font-weight="bold" text-anchor="middle">PDDecodeServer</text><path fill="none" stroke="#000" stroke-miterlimit="10" stroke-width="2" d="M 330 208 L 330 272"/><path fill="none" stroke="#000" stroke-miterlimit="10" stroke-width="2" d="M 140 272 L 520 272"/><path fill="none" stroke="#000" stroke-miterlimit="10" stroke-width="2" d="M 140 272 L 140 314"/><path fill="#000" stroke="#000" stroke-miterlimit="10" stroke-width="2" d="M 140 320 L 136 312 L 140 314 L 144 312 Z"/><path fill="none" stroke="#000" stroke-miterlimit="10" stroke-width="2" d="M 520 272 L 520 340"/><path fill="#000" stroke="#000" stroke-miterlimit="10" stroke-width="2" d="M 520 346 L 516 338 L 520 340 L 524 338 Z"/><rect width="180" height="120" x="66" y="336" fill="#fff" stroke="#000" stroke-width="2.5" pointer-events="all"/><rect width="180" height="120" x="58" y="328" fill="#fff" stroke="#000" stroke-width="2.5" pointer-events="all"/><rect width="180" height="120" x="50" y="320" fill="#fff" stroke="#000" stroke-width="2.5" pointer-events="all"/><text x="140" y="370" fill="#000" dominant-baseline="central" font-family="Helvetica, Arial, sans-serif" font-size="20" font-weight="bold" text-anchor="middle">PDPrefillServer</text><rect width="180" height="80" x="430" y="346" fill="#fff" stroke="#000" stroke-width="2.5" pointer-events="all" rx="10" ry="10"/><text x="520" y="390" fill="#000" dominant-baseline="central" font-family="Helvetica, Arial, sans-serif" font-size="22" font-weight="bold" text-anchor="middle">KVConnector</text><path fill="none" stroke="#000" stroke-dasharray="8 4" stroke-miterlimit="10" stroke-width="2" d="M 246 390 L 424 390"/><path fill="#000" stroke="#000" stroke-miterlimit="10" stroke-width="2" d="M 430 390 L 422 386 L 424 390 L 422 394 Z"/><path fill="#000" stroke="#000" stroke-miterlimit="10" stroke-width="2" d="M 240 390 L 248 394 L 246 390 L 248 386 Z"/><text x="335" y="380" fill="#666" font-family="Helvetica, Arial, sans-serif" font-size="11" font-style="italic" text-anchor="middle">KV transfer</text></g></svg>